<mxfile host="Electron" modified="2023-08-31T12:58:05.327Z" agent="Mozilla/5.0 (Windows NT 10.0; Win64; x64) AppleWebKit/537.36 (KHTML, like Gecko) draw.io/21.6.8 Chrome/114.0.5735.289 Electron/25.5.0 Safari/537.36" etag="6yh3SE76zhSjb-WywUuR" version="21.6.8" type="device">
  <diagram name="Page-1" id="vOfbMsgUL-5StRS7mee7">
    <mxGraphModel dx="1020" dy="1644" grid="1" gridSize="10" guides="1" tooltips="1" connect="1" arrows="1" fold="1" page="1" pageScale="1" pageWidth="850" pageHeight="1100" math="0" shadow="0">
      <root>
        <mxCell id="0" />
        <mxCell id="1" parent="0" />
        <object label="&lt;b&gt;Notify user about messages and other relevant activities&lt;/b&gt;" id="LADcbtU6hQSinfTzh9WJ-12">
          <mxCell style="rounded=1;whiteSpace=wrap;html=1;" vertex="1" parent="1">
            <mxGeometry x="540" y="80" width="190" height="100" as="geometry" />
          </mxCell>
        </object>
        <mxCell id="LADcbtU6hQSinfTzh9WJ-1" value="&lt;h3&gt;Implement&lt;br/&gt;secure authentication mechanisms when user register with username and password&lt;br&gt;&lt;/h3&gt;" style="rounded=1;whiteSpace=wrap;html=1;" vertex="1" parent="1">
          <mxGeometry x="80" y="70" width="210" height="130" as="geometry" />
        </mxCell>
        <mxCell id="LADcbtU6hQSinfTzh9WJ-3" value="&lt;h3&gt;Enable&lt;br/&gt;users to create and customize their profiles&lt;br&gt;&lt;/h3&gt;" style="rounded=1;whiteSpace=wrap;html=1;" vertex="1" parent="1">
          <mxGeometry x="80" y="320" width="130" height="110" as="geometry" />
        </mxCell>
        <mxCell id="LADcbtU6hQSinfTzh9WJ-5" value="User&amp;nbsp;Registration and Authentication" style="rounded=1;whiteSpace=wrap;html=1;" vertex="1" parent="1">
          <mxGeometry x="80" y="70" width="210" height="20" as="geometry" />
        </mxCell>
        <mxCell id="LADcbtU6hQSinfTzh9WJ-6" value="Profile Creation" style="rounded=1;whiteSpace=wrap;html=1;" vertex="1" parent="1">
          <mxGeometry x="80" y="320" width="130" height="20" as="geometry" />
        </mxCell>
        <mxCell id="LADcbtU6hQSinfTzh9WJ-7" value="&lt;b&gt;Provide an interface to enable user manage friends and contacts&lt;/b&gt;" style="rounded=1;whiteSpace=wrap;html=1;" vertex="1" parent="1">
          <mxGeometry x="290" y="420" width="180" height="110" as="geometry" />
        </mxCell>
        <mxCell id="LADcbtU6hQSinfTzh9WJ-8" value="Friend/Contact Management" style="rounded=1;whiteSpace=wrap;html=1;" vertex="1" parent="1">
          <mxGeometry x="290" y="420" width="180" height="20" as="geometry" />
        </mxCell>
        <mxCell id="LADcbtU6hQSinfTzh9WJ-10" value="&lt;b&gt;Enable user to send text messages to their contacts&lt;/b&gt;" style="rounded=1;whiteSpace=wrap;html=1;" vertex="1" parent="1">
          <mxGeometry x="560" y="305" width="180" height="105" as="geometry" />
        </mxCell>
        <mxCell id="LADcbtU6hQSinfTzh9WJ-11" value="Chatting and Message" style="rounded=1;whiteSpace=wrap;html=1;" vertex="1" parent="1">
          <mxGeometry x="560" y="300" width="180" height="20" as="geometry" />
        </mxCell>
        <mxCell id="LADcbtU6hQSinfTzh9WJ-13" value="Notification" style="rounded=1;whiteSpace=wrap;html=1;" vertex="1" parent="1">
          <mxGeometry x="540" y="80" width="190" height="20" as="geometry" />
        </mxCell>
        <mxCell id="LADcbtU6hQSinfTzh9WJ-17" value="" style="endArrow=classic;html=1;rounded=0;" edge="1" parent="1">
          <mxGeometry width="50" height="50" relative="1" as="geometry">
            <mxPoint x="140" y="200" as="sourcePoint" />
            <mxPoint x="140" y="320" as="targetPoint" />
          </mxGeometry>
        </mxCell>
        <mxCell id="LADcbtU6hQSinfTzh9WJ-18" value="" style="endArrow=classic;html=1;rounded=0;exitX=1;exitY=1;exitDx=0;exitDy=0;entryX=-0.026;entryY=0.603;entryDx=0;entryDy=0;entryPerimeter=0;" edge="1" parent="1" source="LADcbtU6hQSinfTzh9WJ-3" target="LADcbtU6hQSinfTzh9WJ-7">
          <mxGeometry width="50" height="50" relative="1" as="geometry">
            <mxPoint x="410" y="310" as="sourcePoint" />
            <mxPoint x="460" y="260" as="targetPoint" />
          </mxGeometry>
        </mxCell>
        <mxCell id="LADcbtU6hQSinfTzh9WJ-19" value="" style="endArrow=classic;html=1;rounded=0;entryX=-0.026;entryY=0.895;entryDx=0;entryDy=0;entryPerimeter=0;exitX=1;exitY=0.427;exitDx=0;exitDy=0;exitPerimeter=0;" edge="1" parent="1" source="LADcbtU6hQSinfTzh9WJ-7" target="LADcbtU6hQSinfTzh9WJ-10">
          <mxGeometry width="50" height="50" relative="1" as="geometry">
            <mxPoint x="410" y="310" as="sourcePoint" />
            <mxPoint x="460" y="260" as="targetPoint" />
          </mxGeometry>
        </mxCell>
        <mxCell id="LADcbtU6hQSinfTzh9WJ-20" value="" style="endArrow=classic;html=1;rounded=0;entryX=0.75;entryY=1;entryDx=0;entryDy=0;exitX=0.674;exitY=-0.183;exitDx=0;exitDy=0;exitPerimeter=0;" edge="1" parent="1" source="LADcbtU6hQSinfTzh9WJ-11" target="LADcbtU6hQSinfTzh9WJ-12">
          <mxGeometry width="50" height="50" relative="1" as="geometry">
            <mxPoint x="410" y="310" as="sourcePoint" />
            <mxPoint x="460" y="260" as="targetPoint" />
          </mxGeometry>
        </mxCell>
        <mxCell id="LADcbtU6hQSinfTzh9WJ-21" value="" style="endArrow=classic;html=1;rounded=0;entryX=0.419;entryY=-0.083;entryDx=0;entryDy=0;entryPerimeter=0;exitX=0.5;exitY=1;exitDx=0;exitDy=0;" edge="1" parent="1" source="LADcbtU6hQSinfTzh9WJ-12" target="LADcbtU6hQSinfTzh9WJ-11">
          <mxGeometry width="50" height="50" relative="1" as="geometry">
            <mxPoint x="410" y="310" as="sourcePoint" />
            <mxPoint x="460" y="260" as="targetPoint" />
          </mxGeometry>
        </mxCell>
        <mxCell id="LADcbtU6hQSinfTzh9WJ-22" value="FFBD OF INTER UNIVERSITY SOCIAL MEDIA PROJECT" style="rounded=0;whiteSpace=wrap;html=1;" vertex="1" parent="1">
          <mxGeometry x="80" y="-10" width="730" height="50" as="geometry" />
        </mxCell>
      </root>
    </mxGraphModel>
  </diagram>
</mxfile>
